HIERARCHY
ROOT Hips
{
	OFFSET 0.000000 0.000000 0.000000 
	CHANNELS 6 Xposition Yposition Zposition Zrotation Yrotation Xrotation
	JOINT LeftUpLeg
	{
		OFFSET 1.363060 -1.794630 0.839290 
		CHANNELS 3 Zrotation Yrotation Xrotation
		JOINT LeftLeg
		{
			OFFSET 2.448110 -6.726130 0.000000 
			CHANNELS 3 Zrotation Yrotation Xrotation
			JOINT LeftFoot
			{
				OFFSET 2.562200 -7.039590 0.000000 
				CHANNELS 3 Zrotation Yrotation Xrotation
				JOINT LeftToeBase
				{
					OFFSET 0.157640 -0.433110 2.322550 
					CHANNELS 3 Zrotation Yrotation Xrotation
					End Site
					{
						OFFSET 0.000000 0.000000 0.000000 
					}
				}
			}
		}
	}
	JOINT RightUpLeg
	{
		OFFSET -1.305520 -1.794630 0.839290 
		CHANNELS 3 Zrotation Yrotation Xrotation
		JOINT RightLeg
		{
			OFFSET -2.542530 -6.985550 0.000000 
			CHANNELS 3 Zrotation Yrotation Xrotation
			JOINT RightFoot
			{
				OFFSET -2.568260 -7.056230 0.000000 
				CHANNELS 3 Zrotation Yrotation Xrotation
				JOINT RightToeBase
				{
					OFFSET -0.164730 -0.452590 2.363150 
					CHANNELS 3 Zrotation Yrotation Xrotation
					End Site
					{
						OFFSET 0.000000 0.000000 0.000000 
					}
				}
			}
		}
	}
	JOINT Spine
	{
		OFFSET 0.028270 2.035590 -0.193380 
		CHANNELS 3 Zrotation Yrotation Xrotation
		JOINT Spine1
		{
			OFFSET 0.056720 2.048850 -0.042750 
			CHANNELS 3 Zrotation Yrotation Xrotation
			JOINT Neck1
			{
				OFFSET -0.054170 1.746240 0.172020 
				CHANNELS 3 Zrotation Yrotation Xrotation
				JOINT Head
				{
					OFFSET 0.104070 1.761360 -0.123970 
					CHANNELS 3 Zrotation Yrotation Xrotation
					End Site
					{
						OFFSET 0.000000 0.000000 0.000000 
					}
				}
			}
			JOINT LeftArm
			{
				OFFSET 3.362410 1.200890 -0.311210 
				CHANNELS 3 Zrotation Yrotation Xrotation
				JOINT LeftForeArm
				{
					OFFSET 4.983000 -0.000000 -0.000000 
					CHANNELS 3 Zrotation Yrotation Xrotation
					JOINT LeftHand
					{
						OFFSET 3.483560 -0.000000 -0.000000 
						CHANNELS 3 Zrotation Yrotation Xrotation
						JOINT LeftHandIndex1
						{
							OFFSET 0.715260 -0.000000 -0.000000 
							CHANNELS 3 Zrotation Yrotation Xrotation
							End Site
							{
								OFFSET 0.000000 0.000000 0.000000 
							}
						}
					}
				}
			}
			JOINT RightArm
			{
				OFFSET -3.136600 1.374050 -0.404650 
				CHANNELS 3 Zrotation Yrotation Xrotation
				JOINT RightForeArm
				{
					OFFSET -5.241900 -0.000000 -0.000000 
					CHANNELS 3 Zrotation Yrotation Xrotation
					JOINT RightHand
					{
						OFFSET -3.444170 -0.000000 -0.000000 
						CHANNELS 3 Zrotation Yrotation Xrotation
						JOINT RightHandIndex1
						{
							OFFSET -0.622530 -0.000000 -0.000000 
							CHANNELS 3 Zrotation Yrotation Xrotation
							End Site
							{
								OFFSET 0.000000 0.000000 0.000000 
							}
						}
					}
				}
			}
		}
	}
}
MOTION
Frames: 9
Frame Time: 0.041667
10.276547 14.914601 10.115918 -176.962165 -3.999077 163.996353 11.469731 14.543474 -38.069806 20.118135 22.477745 69.806603 7.652295 -4.548790 32.112419 1.536600 -7.825600 -22.185500 -9.201248 -6.372435 -34.944193 -21.158170 -22.420794 63.679866 0.947887 -14.834763 37.273322 -1.526400 7.800700 -22.110300 -0.818916 12.689328 22.999460 -0.326594 -5.982382 -10.378090 5.905708 -7.637391 4.590580 3.871700 -3.266700 2.839000 -18.044108 -47.507858 44.196609 32.194118 -6.544863 -19.074497 -9.926776 -7.684747 20.519310 -7.125000 0.000000 0.000000 23.947892 43.706505 19.654152 -37.071481 21.245190 -35.621076 -3.331207 -3.078812 27.930404 7.125000 0.000000 0.000000 
10.278899 14.904363 10.114811 -177.281830 -4.006704 163.970223 11.187643 14.640453 -38.146831 20.066408 22.359383 69.825070 7.596297 -4.417020 32.194158 1.418200 -7.531300 -21.299300 -9.490302 -6.277776 -34.808843 -21.320886 -22.579844 63.484962 1.366613 -15.827111 37.160759 -1.937300 8.734200 -24.967300 0.365021 13.390565 22.453783 -0.696091 -5.818024 -10.243374 5.753456 -7.566981 4.553182 3.745500 -3.250900 2.795700 -18.486844 -47.863746 43.669536 32.655362 -6.702673 -19.416976 -9.840173 -7.649302 20.607181 -7.125000 0.000000 0.000000 24.307101 44.256881 19.934528 -37.002257 20.908790 -35.207250 -3.342083 -3.196777 27.675249 7.125000 0.000000 0.000000 
10.283050 14.910173 10.109969 -177.530459 -4.032767 164.124219 10.809214 14.879827 -38.379274 20.033987 22.174590 69.786670 7.361340 -3.861735 32.169492 1.439200 -7.584500 -21.458900 -9.924209 -6.062344 -34.868736 -21.178195 -22.767034 63.832883 0.627492 -14.136275 37.344396 -1.641000 8.074400 -22.940200 2.022303 14.053955 21.691684 -1.350188 -5.479842 -9.902317 5.569419 -7.521645 4.531940 3.655600 -3.249300 2.845700 -18.832399 -48.022135 43.037633 33.230121 -7.290422 -19.789926 -9.555309 -7.810542 20.189036 -7.125000 0.000000 0.000000 24.887729 45.081270 20.239754 -37.030506 20.516277 -34.823091 -3.413762 -3.270505 27.562700 7.125000 0.000000 0.000000 
10.284710 14.920827 10.100837 -177.716354 -3.932522 164.277160 10.574119 15.084848 -38.505958 20.032304 22.101055 69.785556 7.220327 -3.527738 32.082844 1.474100 -7.672000 -21.722100 -10.241296 -5.791390 -34.866088 -21.020165 -22.856128 63.979892 -0.008333 -12.722594 37.624392 -1.301600 7.227800 -20.392100 2.480261 14.375176 21.380617 -1.603555 -5.452464 -9.699984 5.521805 -7.448646 4.544080 3.658700 -3.219200 2.972200 -18.719362 -47.782746 42.248275 33.323675 -7.738890 -20.024264 -9.678052 -7.972820 19.635014 -7.125000 0.000000 0.000000 24.936802 45.603559 20.416620 -37.075613 20.176042 -34.630087 -3.533253 -3.242848 27.621775 7.125000 0.000000 0.000000 
10.285402 14.925531 10.095303 -177.909412 -3.800193 164.297878 10.484252 15.137558 -38.448756 19.975053 22.170013 69.828306 7.486782 -4.135197 32.132087 1.298300 -7.219000 -20.365800 -10.337177 -5.810243 -34.942460 -20.958235 -22.760746 64.110968 -0.369069 -11.923997 37.778879 -1.112600 6.701100 -18.832900 1.222232 14.117564 21.862110 -1.146941 -5.663325 -9.829970 5.647694 -7.354064 4.541767 3.783600 -3.164800 2.916200 -18.227191 -47.557595 41.229323 33.436576 -8.067542 -20.535107 -9.507306 -8.187098 19.126067 -7.125000 0.000000 0.000000 24.483804 45.473235 20.480093 -37.097824 20.118853 -34.734538 -3.697230 -3.180709 27.671956 7.125000 0.000000 0.000000 
10.288031 14.919305 10.089492 -177.984893 -3.758984 164.228041 10.532537 15.113349 -38.335188 19.966090 22.262560 69.921734 7.733106 -4.724896 32.162412 1.185400 -6.909600 -19.447900 -10.100315 -6.229507 -35.092648 -21.076596 -22.602959 64.079739 -0.049759 -12.668065 37.634353 -1.360000 7.381700 -20.851100 -0.136248 13.513661 22.475729 -0.658013 -5.767048 -9.935120 5.766914 -7.310727 4.576417 3.849100 -3.141300 2.879000 -17.913693 -47.515806 40.335963 33.905857 -8.583353 -21.492413 -9.525943 -8.580447 18.356187 -7.125000 0.000000 0.000000 23.883779 45.058575 20.421590 -37.095013 20.199006 -34.896211 -3.800142 -3.210182 27.507259 7.125000 0.000000 0.000000 
10.292043 14.906991 10.083266 -178.062660 -3.761227 164.243401 10.486558 15.175639 -38.391808 20.048611 22.257531 70.060214 7.589641 -4.436985 31.982984 1.327000 -7.295000 -20.592300 -10.004090 -6.427320 -35.209481 -21.179052 -22.561130 64.051020 0.244634 -13.338776 37.499138 -1.557400 7.875900 -22.337700 -0.415723 13.273800 22.662194 -0.549254 -5.702406 -9.910638 5.781857 -7.240620 4.619550 3.824000 -3.112500 2.986200 -17.851638 -47.513327 39.771715 34.336517 -8.976187 -22.084712 -9.231590 -8.785310 18.095522 -7.125000 0.000000 0.000000 23.314716 44.887089 20.435229 -37.018525 20.064476 -34.766308 -3.823926 -3.262425 27.304698 7.125000 0.000000 0.000000 
10.294810 14.904778 10.082159 -178.379805 -3.685150 164.358203 10.210223 15.298433 -38.524008 20.078692 22.232217 70.158695 7.441327 -4.143843 31.816949 1.386500 -7.450300 -21.056500 -10.158901 -6.454731 -35.341625 -21.193678 -22.531097 64.078630 0.149921 -13.148276 37.560341 -1.495800 7.725800 -21.884300 -0.935165 12.999928 22.894186 -0.251946 -5.772454 -9.934282 5.813508 -7.163658 4.615154 3.766800 -3.077700 3.029600 -17.618642 -47.389643 39.212291 34.311896 -8.980862 -22.190050 -8.959376 -8.632748 18.584964 -7.125000 0.000000 0.000000 22.776302 44.787576 20.533717 -37.015801 19.962713 -34.712109 -3.911955 -3.241406 27.117717 7.125000 0.000000 0.000000 
10.296055 14.910727 10.077455 -178.445810 -3.556319 164.504462 10.165993 15.371086 -38.572326 20.078578 22.278902 70.217125 7.551663 -4.416302 31.783178 1.320100 -7.276800 -20.538000 -10.057646 -6.566057 -35.495743 -21.204980 -22.445205 64.072640 0.204946 -13.242626 37.523607 -1.536000 7.824100 -22.181000 -1.714133 12.544574 23.186584 -0.079148 -5.994212 -9.784843 5.881495 -7.299838 4.612142 3.630400 -3.139000 3.213300 -17.280914 -47.185506 39.095839 34.002748 -8.607545 -22.022780 -9.057190 -8.328726 19.095544 -7.125000 0.000000 0.000000 22.102883 44.559597 20.163843 -37.118018 19.996385 -34.991872 -3.946590 -3.155746 26.928326 7.125000 0.000000 0.000000 
